REM DIRINDEX 1\2,1\3,1\4
REM DIRNAME cjc151,folder01,folder02,folder03
TITLE ""
FILE "016 016_Lesson 4_TOEFL_3900.mp3" MP3
  TRACK 01 AUDIO
    TITLE "4:cjc151_0665"
    INDEX 01 00:00:00
  TRACK 02 AUDIO
    TITLE "0:"
    INDEX 01 00:01:46
  TRACK 03 AUDIO
    TITLE "2:cjc151_0666"
    INDEX 01 00:02:20
  TRACK 04 AUDIO
    TITLE "0:"
    INDEX 01 00:03:66
  TRACK 05 AUDIO
    TITLE "3:cjc151_0667"
    INDEX 01 00:05:44
  TRACK 06 AUDIO
    TITLE "0:"
    INDEX 01 00:09:49
  TRACK 07 AUDIO
    TITLE "2:cjc151_0668"
    INDEX 01 00:11:29
  TRACK 08 AUDIO
    TITLE "0:"
    INDEX 01 00:12:54
  TRACK 09 AUDIO
    TITLE "3:cjc151_0669"
    INDEX 01 00:14:33
  TRACK 10 AUDIO
    TITLE "0:"
    INDEX 01 00:17:57
  TRACK 11 AUDIO
    TITLE "2:cjc151_0670"
    INDEX 01 00:19:36
  TRACK 12 AUDIO
    TITLE "0:"
    INDEX 01 00:20:37
  TRACK 13 AUDIO
    TITLE "3:cjc151_0671"
    INDEX 01 00:22:15
  TRACK 14 AUDIO
    TITLE "0:"
    INDEX 01 00:25:39
  TRACK 15 AUDIO
    TITLE "2:cjc151_0672"
    INDEX 01 00:27:18
  TRACK 16 AUDIO
    TITLE "0:"
    INDEX 01 00:28:25
  TRACK 17 AUDIO
    TITLE "3:cjc151_0673"
    INDEX 01 00:30:06
  TRACK 18 AUDIO
    TITLE "0:"
    INDEX 01 00:34:20
  TRACK 19 AUDIO
    TITLE "2:cjc151_0674"
    INDEX 01 00:35:72
  TRACK 20 AUDIO
    TITLE "0:"
    INDEX 01 00:36:68
  TRACK 21 AUDIO
    TITLE "3:cjc151_0675"
    INDEX 01 00:38:45
  TRACK 22 AUDIO
    TITLE "0:"
    INDEX 01 00:42:59
  TRACK 23 AUDIO
    TITLE "2:cjc151_0676"
    INDEX 01 00:44:38
  TRACK 24 AUDIO
    TITLE "0:"
    INDEX 01 00:45:43
  TRACK 25 AUDIO
    TITLE "3:cjc151_0677"
    INDEX 01 00:47:23
  TRACK 26 AUDIO
    TITLE "0:"
    INDEX 01 00:51:34
  TRACK 27 AUDIO
    TITLE "2:cjc151_0678"
    INDEX 01 00:53:13
  TRACK 28 AUDIO
    TITLE "0:"
    INDEX 01 00:54:34
  TRACK 29 AUDIO
    TITLE "3:cjc151_0679"
    INDEX 01 00:56:14
  TRACK 30 AUDIO
    TITLE "0:"
    INDEX 01 01:00:45
  TRACK 31 AUDIO
    TITLE "2:cjc151_0680"
    INDEX 01 01:02:24
  TRACK 32 AUDIO
    TITLE "0:"
    INDEX 01 01:03:20
  TRACK 33 AUDIO
    TITLE "3:cjc151_0681"
    INDEX 01 01:04:74
  TRACK 34 AUDIO
    TITLE "0:"
    INDEX 01 01:08:21
  TRACK 35 AUDIO
    TITLE "2:cjc151_0682"
    INDEX 01 01:10:00
  TRACK 36 AUDIO
    TITLE "0:"
    INDEX 01 01:11:03
  TRACK 37 AUDIO
    TITLE "3:cjc151_0683"
    INDEX 01 01:12:56
  TRACK 38 AUDIO
    TITLE "0:"
    INDEX 01 01:16:73
  TRACK 39 AUDIO
    TITLE "2:cjc151_0684"
    INDEX 01 01:18:53
  TRACK 40 AUDIO
    TITLE "0:"
    INDEX 01 01:19:66
  TRACK 41 AUDIO
    TITLE "3:cjc151_0685"
    INDEX 01 01:21:45
  TRACK 42 AUDIO
    TITLE "0:"
    INDEX 01 01:24:63
  TRACK 43 AUDIO
    TITLE "2:cjc151_0686"
    INDEX 01 01:26:42
  TRACK 44 AUDIO
    TITLE "0:"
    INDEX 01 01:27:53
  TRACK 45 AUDIO
    TITLE "3:cjc151_0687"
    INDEX 01 01:29:33
  TRACK 46 AUDIO
    TITLE "0:"
    INDEX 01 01:33:54
  TRACK 47 AUDIO
    TITLE "2:cjc151_0688"
    INDEX 01 01:35:33
  TRACK 48 AUDIO
    TITLE "0:"
    INDEX 01 01:36:47
  TRACK 49 AUDIO
    TITLE "3:cjc151_0689"
    INDEX 01 01:38:22
  TRACK 50 AUDIO
    TITLE "0:"
    INDEX 01 01:41:48
  TRACK 51 AUDIO
    TITLE "2:cjc151_0690"
    INDEX 01 01:43:27
  TRACK 52 AUDIO
    TITLE "0:"
    INDEX 01 01:44:44
  TRACK 53 AUDIO
    TITLE "3:cjc151_0691"
    INDEX 01 01:46:23
  TRACK 54 AUDIO
    TITLE "0:"
    INDEX 01 01:50:45
  TRACK 55 AUDIO
    TITLE "2:cjc151_0692"
    INDEX 01 01:52:24
  TRACK 56 AUDIO
    TITLE "0:"
    INDEX 01 01:53:45
  TRACK 57 AUDIO
    TITLE "3:cjc151_0693"
    INDEX 01 01:55:22
  TRACK 58 AUDIO
    TITLE "0:"
    INDEX 01 01:58:48
  TRACK 59 AUDIO
    TITLE "2:cjc151_0694"
    INDEX 01 02:00:25
  TRACK 60 AUDIO
    TITLE "0:"
    INDEX 01 02:01:29
  TRACK 61 AUDIO
    TITLE "3:cjc151_0695"
    INDEX 01 02:03:08
  TRACK 62 AUDIO
    TITLE "0:"
    INDEX 01 02:07:27
  TRACK 63 AUDIO
    TITLE "2:cjc151_0696"
    INDEX 01 02:09:05
  TRACK 64 AUDIO
    TITLE "0:"
    INDEX 01 02:10:36
  TRACK 65 AUDIO
    TITLE "3:cjc151_0697"
    INDEX 01 02:12:13
  TRACK 66 AUDIO
    TITLE "0:"
    INDEX 01 02:16:34
  TRACK 67 AUDIO
    TITLE "2:cjc151_0698"
    INDEX 01 02:18:12
  TRACK 68 AUDIO
    TITLE "0:"
    INDEX 01 02:19:27
  TRACK 69 AUDIO
    TITLE "3:cjc151_0699"
    INDEX 01 02:21:06
  TRACK 70 AUDIO
    TITLE "0:"
    INDEX 01 02:24:49
  TRACK 71 AUDIO
    TITLE "2:cjc151_0700"
    INDEX 01 02:26:27
  TRACK 72 AUDIO
    TITLE "0:"
    INDEX 01 02:27:46
  TRACK 73 AUDIO
    TITLE "3:cjc151_0701"
    INDEX 01 02:29:23
  TRACK 74 AUDIO
    TITLE "0:"
    INDEX 01 02:33:35
  TRACK 75 AUDIO
    TITLE "2:cjc151_0702"
    INDEX 01 02:35:14
  TRACK 76 AUDIO
    TITLE "0:"
    INDEX 01 02:36:15
  TRACK 77 AUDIO
    TITLE "3:cjc151_0703"
    INDEX 01 02:37:72
  TRACK 78 AUDIO
    TITLE "0:"
    INDEX 01 02:41:71
  TRACK 79 AUDIO
    TITLE "2:cjc151_0704"
    INDEX 01 02:43:53
  TRACK 80 AUDIO
    TITLE "0:"
    INDEX 01 02:44:70
  TRACK 81 AUDIO
    TITLE "3:cjc151_0705"
    INDEX 01 02:46:49
  TRACK 82 AUDIO
    TITLE "0:"
    INDEX 01 02:50:23
  TRACK 83 AUDIO
    TITLE "2:cjc151_0706"
    INDEX 01 02:52:05
  TRACK 84 AUDIO
    TITLE "0:"
    INDEX 01 02:53:18
  TRACK 85 AUDIO
    TITLE "3:cjc151_0707"
    INDEX 01 02:54:74
  TRACK 86 AUDIO
    TITLE "0:"
    INDEX 01 02:58:42
  TRACK 87 AUDIO
    TITLE "2:cjc151_0708"
    INDEX 01 03:00:24
  TRACK 88 AUDIO
    TITLE "0:"
    INDEX 01 03:01:17
  TRACK 89 AUDIO
    TITLE "3:cjc151_0709"
    INDEX 01 03:02:72
  TRACK 90 AUDIO
    TITLE "0:"
    INDEX 01 03:06:58
